#!OML:ASF H:\Male1\Project 1\Capture day 1\Session 1\Male1.ASF
:FULLY-SPECIFIED
:DEGREES
617
root 16.8927 15.4854 -0.608604 177.517 -79.9996 -180.73
lowerback 5.64593 2.0582 -1.67297
upperback 1.82575 2.58287 -1.0655
thorax -1.30898 1.27019 -0.32891
lowerneck -8.37475 3.42376 6.99826
upperneck 10.8001 4.30724 -5.42033
head 4.88352 2.04982 -2.53095
rclavicle 7.10655e-015 -2.38542e-015
rhumerus -35.8673 9.50954 -93.0343
rradius 29.4046
rwrist -19.7987
rhand -15.8063 1.04092
rfingers 7.12502
rthumb 10.387 -28.6825
lclavicle 7.10655e-015 -2.38542e-015
lhumerus -31.0411 -1.45238 83.8593
lradius 27.5686
lwrist -4.23759
lhand -18.9788 8.97665
lfingers 7.12502
lthumb 7.32565 38.8298
rfemur 0.0327801 17.8608 23.6487
rtibia 19.7384
rfoot -32.4952 -32.9387
rtoes -10.7064
lfemur 1.33289 -18.0277 -22.4818
ltibia 20.3771
lfoot -27.0552 30.6881
ltoes 4.6996
618
root 16.8942 15.4859 -0.607452 177.74 -79.9578 -180.943
lowerback 5.64001 2.06749 -1.71346
upperback 1.81901 2.59246 -1.08723
thorax -1.31346 1.27493 -0.329174
lowerneck -8.38608 3.41544 7.01352
upperneck 10.7818 4.29686 -5.45199
head 4.88009 2.04334 -2.54395
rclavicle -1.37658e-014 3.18055e-015
rhumerus -35.8744 9.23127 -92.9472
rradius 29.4603
rwrist -19.7056
rhand -15.7327 1.02464
rfingers 7.12502
rthumb 10.458 -28.6952
lclavicle -1.37658e-014 3.18055e-015
lhumerus -31.2106 -1.34802 83.946
lradius 27.4764
lwrist -4.37226
lhand -18.7717 9.16036
lfingers 7.12502
lthumb 7.52552 39.0065
rfemur -0.00655459 17.8873 23.5978
rtibia 19.7585
rfoot -32.4688 -32.9518
rtoes -10.8422
lfemur 1.32889 -18.0162 -22.5225
ltibia 20.3495
lfoot -27.0369 30.7274
ltoes 4.68016
619
root 16.8956 15.4862 -0.606541 178.024 -79.9033 -181.228
lowerback 5.64828 2.07756 -1.75979
upperback 1.81034 2.60199 -1.11806
thorax -1.32765 1.27963 -0.336112
lowerneck -8.37771 3.40179 7.00955
upperneck 10.7661 4.28042 -5.46324
head 4.87291 2.03456 -2.54816
rclavicle -4.73108e-014 4.37326e-015
rhumerus -35.8708 8.93575 -92.868
rradius 29.492
rwrist -19.6291
rhand -15.687 1.00147
rfingers 7.12502
rthumb 10.5021 -28.7162
lclavicle -4.73108e-014 4.37326e-015
lhumerus -31.3894 -1.22386 83.9997
lradius 27.3942
lwrist -4.50488
lhand -18.731 9.14016
lfingers 7.12502
lthumb 7.5648 38.9849
rfemur -0.0468732 17.9066 23.533
rtibia 19.7947
rfoot -32.4505 -32.9468
rtoes -11.054
lfemur 1.3453 -18.0196 -22.5852
ltibia 20.312
lfoot -27.0369 30.7848
ltoes 4.72024
620
root 16.8968 15.4861 -0.605719 178.214 -79.8457 -181.43
lowerback 5.66623 2.08136 -1.78696
upperback 1.80572 2.60405 -1.14496
thorax -1.34236 1.28057 -0.349495
lowerneck -8.35714 3.39342 6.98536
upperneck 10.7449 4.273 -5.46346
head 4.86189 2.03021 -2.54513
rclavicle -1.07344e-014 -1.07344e-014
rhumerus -35.8559 8.66612 -92.8009
rradius 29.5022
rwrist -19.5754
rhand -15.668 0.953665
rfingers 7.12502
rthumb 10.5205 -28.7631
lclavicle -1.07344e-014 -1.07344e-014
lhumerus -31.5741 -1.05991 84.0211
lradius 27.3312
lwrist -4.63656
lhand -18.8412 8.96478
lfingers 7.12502
lthumb 7.45848 38.8133
rfemur -0.0742587 17.9151 23.4854
rtibia 19.8329
rfoot -32.4446 -32.921
rtoes -11.2766
lfemur 1.3804 -18.043 -22.6418
ltibia 20.2753
lfoot -27.0686 30.8483
ltoes 4.82522
621
root 16.8978 15.486 -0.604925 178.268 -79.7994 -181.5
lowerback 5.68108 2.07287 -1.79459
upperback 1.81044 2.59139 -1.15673
thorax -1.34546 1.27408 -0.356894
lowerneck -8.34385 3.40012 6.9376
upperneck 10.7234 4.28817 -5.46005
head 4.85288 2.03609 -2.53538
rclavicle -2.22639e-014 5.96354e-015
rhumerus -35.8281 8.45298 -92.7398
rradius 29.4937
rwrist -19.5445
rhand -15.6666 0.878743
rfingers 7.12502
rthumb 10.5218 -28.8379
lclavicle -2.22639e-014 5.96354e-015
lhumerus -31.7539 -0.841116 84.0198
lradius 27.2899
lwrist -4.76431
lhand -18.8204 8.93762
lfingers 7.12502
lthumb 7.47854 38.7854
rfemur -0.0876327 17.9099 23.4646
rtibia 19.8645
rfoot -32.4443 -32.8819
rtoes -11.45
lfemur 1.42212 -18.087 -22.6785
ltibia 20.2454
lfoot -27.1262 30.9076
ltoes 4.98002
622
root 16.8986 15.4857 -0.604275 178.274 -79.7716 -181.522
lowerback 5.6857 2.05428 -1.80076
upperback 1.82657 2.56605 -1.15683
thorax -1.33153 1.26112 -0.351602
lowerneck -8.34908 3.42158 6.87451
upperneck 10.7031 4.32408 -5.45488
head 4.84828 2.05139 -2.52081
rclavicle -6.08778e-015 -8.34896e-015
rhumerus -35.7892 8.29431 -92.6807
rradius 29.4734
rwrist -19.5338
rhand -15.6677 0.780985
rfingers 7.12502
rthumb 10.5207 -28.9357
lclavicle -6.08778e-015 -8.34896e-015
lhumerus -31.9175 -0.583279 84.003
lradius 27.27
lwrist -4.89103
lhand -18.6076 9.11856
lfingers 7.12502
lthumb 7.68392 38.959
rfemur -0.0908684 17.8921 23.455
rtibia 19.8877
rfoot -32.4341 -32.8423
rtoes -11.5521
lfemur 1.46106 -18.1395 -22.706
ltibia 20.2235
lfoot -27.186 30.96
ltoes 5.11615
623
root 16.8992 15.4854 -0.603896 178.29 -79.7608 -181.555
lowerback 5.68371 2.03032 -1.81529
upperback 1.85196 2.53341 -1.15173
thorax -1.30492 1.24435 -0.335344
lowerneck -8.36587 3.4499 6.80271
upperneck 10.6789 4.36899 -5.44383
head 4.84463 2.07101 -2.50217
rclavicle -2.48481e-016 -1.43125e-014
rhumerus -35.7473 8.17005 -92.6214
rradius 29.454
rwrist -19.5327
rhand -15.6592 0.658782
rfingers 7.12502
rthumb 10.5289 -29.0575
lclavicle -2.48481e-016 -1.43125e-014
lhumerus -32.0652 -0.320424 83.9763
lradius 27.2713
lwrist -5.00868
lhand -18.1999 9.4998
lfingers 7.12502
lthumb 8.07742 39.3254
rfemur -0.0867893 17.8675 23.4466
rtibia 19.907
rfoot -32.4138 -32.8094
rtoes -11.59
lfemur 1.49668 -18.1857 -22.732
ltibia 20.2058
lfoot -27.2292 31.0027
ltoes 5.18039
624
root 16.8999 15.4852 -0.60394 178.337 -79.7619 -181.62
lowerback 5.67848 2.00741 -1.8406
upperback 1.88135 2.50163 -1.14626
thorax -1.27287 1.2279 -0.312557
lowerneck -8.38375 3.47672 6.72797
upperneck 10.6515 4.41073 -5.42062
head 4.83963 2.08973 -2.47948
rclavicle -2.51214e-014 1.19271e-014
rhumerus -35.7067 8.03916 -92.5527
rradius 29.4345
rwrist -19.5175
rhand -15.638 0.525512
rfingers 7.12502
rthumb 10.5494 -29.1897
lclavicle -2.51214e-014 1.19271e-014
lhumerus -32.199 -0.0903082 83.9451
lradius 27.2918
lwrist -5.10368
lhand -17.4823 10.1473
lfingers 7.12502
lthumb 8.76998 39.9451
rfemur -0.0797775 17.8462 23.4366
rtibia 19.9243
rfoot -32.3896 -32.7898
rtoes -11.5555
lfemur 1.52573 -18.2165 -22.7567
ltibia 20.1909
lfoot -27.2453 31.0323
ltoes 5.15472
625
root 16.9007 15.4849 -0.604467 178.426 -79.7648 -181.728
lowerback 5.67672 1.99387 -1.87315
upperback 1.90929 2.4816 -1.14773
thorax -1.2443 1.21728 -0.293823
lowerneck -8.40056 3.49818 6.66055
upperneck 10.6306 4.44222 -5.37857
head 4.83554 2.10491 -2.45286
rclavicle -1.8487e-014 7.15625e-015
rhumerus -35.6678 7.86251 -92.4714
rradius 29.4046
rwrist -19.4723
rhand -15.6188 0.421836
rfingers 7.12502
rthumb 10.5678 -29.2925
lclavicle -1.8487e-014 7.15625e-015
lhumerus -32.3158 0.0646849 83.9108
lradius 27.3223
lwrist -5.15828
lhand -16.9025 10.5889
lfingers 7.12502
lthumb 9.32937 40.3624
rfemur -0.0675185 17.8326 23.4227
rtibia 19.9342
rfoot -32.3626 -32.7824
rtoes -11.4627
lfemur 1.54732 -18.2275 -22.7823
ltibia 20.1838
lfoot -27.2381 31.0491
ltoes 5.05842
626
root 16.9014 15.4845 -0.605186 178.479 -79.7625 -181.801
lowerback 5.68511 1.98879 -1.89371
upperback 1.93177 2.47307 -1.15341
thorax -1.22641 1.2125 -0.287396
lowerneck -8.42464 3.51954 6.59572
upperneck 10.6323 4.47026 -5.31107
head 4.83888 2.11989 -2.41885
rclavicle -4.56459e-014 7.15625e-015
rhumerus -35.6321 7.64645 -92.3811
rradius 29.3634
rwrist -19.4064
rhand -15.6366 0.397155
rfingers 7.12502
rthumb 10.5507 -29.318
lclavicle -4.56459e-014 7.15625e-015
lhumerus -32.4092 0.131556 83.8754
lradius 27.3438
lwrist -5.15865
lhand -16.6136 10.7338
lfingers 7.12502
lthumb 9.60817 40.4947
rfemur -0.0477009 17.8197 23.4163
rtibia 19.9301
rfoot -32.3322 -32.781
rtoes -11.3675
lfemur 1.56139 -18.2233 -22.7974
ltibia 20.1887
lfoot -27.2228 31.0576
ltoes 4.93388
627
root 16.9021 15.4843 -0.605899 178.412 -79.7503 -181.752
lowerback 5.70472 1.98923 -1.88659
upperback 1.94546 2.4732 -1.15628
thorax -1.22282 1.2123 -0.294733
lowerneck -8.45315 3.54362 6.53263
upperneck 10.6568 4.49994 -5.22651
head 4.84974 2.13664 -2.37958
rclavicle 1.61513e-015 1.98785e-015
rhumerus -35.6043 7.41072 -92.2844
rradius 29.3157
rwrist -19.3327
rhand -15.7081 0.456573
rfingers 7.12502
rthumb 10.4817 -29.2621
lclavicle 1.61513e-015 1.98785e-015
lhumerus -32.4775 0.116951 83.8421
lradius 27.3472
lwrist -5.11074
lhand -16.4702 10.8469
lfingers 7.12502
lthumb 9.74652 40.6014
rfemur -0.022666 17.8082 23.4322
rtibia 19.9103
rfoot -32.2907 -32.7861
rtoes -11.3018
lfemur 1.56769 -18.2095 -22.7871
ltibia 20.2057
lfoot -27.2083 31.0662
ltoes 4.80466
628
root 16.9029 15.4841 -0.606641 178.265 -79.7273 -181.615
lowerback 5.73142 1.99616 -1.86133
upperback 1.9477 2.48293 -1.15623
thorax -1.2344 1.21716 -0.310384
lowerneck -8.47061 3.56715 6.48368
upperneck 10.69 4.52802 -5.14444
head 4.86168 2.15313 -2.34365
rclavicle -2.07978e-014 -1.11319e-014
rhumerus -35.5886 7.16231 -92.1809
rradius 29.2637
rwrist -19.2495
rhand -15.8247 0.572082
rfingers 7.12502
rthumb 10.3692 -29.1523
lclavicle -2.07978e-014 -1.11319e-014
lhumerus -32.5267 0.0373778 83.8108
lradius 27.337
lwrist -5.02987
lhand -16.4632 10.9298
lfingers 7.12502
lthumb 9.75325 40.684
rfemur 0.00234459 17.8066 23.4641
rtibia 19.8784
rfoot -32.2409 -32.7975
rtoes -11.2697
lfemur 1.56584 -18.1914 -22.758
ltibia 20.2304
lfoot -27.2025 31.0753
ltoes 4.71827
629
root 16.9039 15.4842 -0.607411 178.12 -79.7026 -181.469
lowerback 5.75099 2.00769 -1.83815
upperback 1.94267 2.49906 -1.1524
thorax -1.2498 1.22537 -0.32135
lowerneck -8.47693 3.59033 6.45714
upperneck 10.7254 4.55576 -5.08312
head 4.87332 2.16919 -2.31802
rclavicle 8.12532e-015 1.11319e-014
rhumerus -35.5783 6.91272 -92.0628
rradius 29.2079
rwrist -19.1549
rhand -15.9838 0.750743
rfingers 7.12502
rthumb 10.2158 -28.9812
lclavicle 8.12532e-015 1.11319e-014
lhumerus -32.5573 -0.0535872 83.7768
lradius 27.3235
lwrist -4.94319
lhand -16.3358 11.1982
lfingers 7.12502
lthumb 9.87621 40.9466
rfemur 0.0167818 17.8164 23.4953
rtibia 19.8434
rfoot -32.1954 -32.8129
rtoes -11.2588
lfemur 1.55265 -18.1734 -22.723
ltibia 20.2546
lfoot -27.214 31.0729
ltoes 4.72802
